<svg xmlns="http://www.w3.org/2000/svg" xmlns:xlink="http://www.w3.org/1999/xlink" width="20" height="20" viewBox="0 0 20 20"><defs><path id="a" d="M774.444 957.395c-1.389 3.856-5.083 6.62-9.411 6.62-4.329 0-8.023-2.764-9.412-6.62a9.954 9.954 0 0 1-.588-3.38 9.957 9.957 0 0 1 .588-3.38c1.389-3.855 5.083-6.62 9.412-6.62 4.328 0 8.022 2.765 9.411 6.62a9.957 9.957 0 0 1 .588 3.38 9.954 9.954 0 0 1-.588 3.38zm-7.903 2.958c.247-.743.446-1.597.59-2.526h-4.197c.145.93.343 1.783.59 2.526.514 1.54 1.128 2.229 1.509 2.229.38 0 .994-.69 1.508-2.229zm.764-3.96c.069-.764.105-1.562.105-2.378a26.5 26.5 0 0 0-.105-2.377h-4.545a26.542 26.542 0 0 0-.105 2.377c0 .816.036 1.614.105 2.378zm-10.503 0h4.52a27.843 27.843 0 0 1 0-4.755h-4.52a8.543 8.543 0 0 0-.336 2.377c0 .825.118 1.623.336 2.378zm6.722-8.715a15.688 15.688 0 0 0-.59 2.526h4.197a15.702 15.702 0 0 0-.59-2.526c-.513-1.54-1.128-2.23-1.508-2.23-.381 0-.995.69-1.509 2.23zm5.32 6.338c0 .797-.034 1.597-.101 2.377h4.52a8.538 8.538 0 0 0 .336-2.377c0-.825-.117-1.623-.336-2.378h-4.52c.067.78.1 1.58.1 2.378zm-1.572-8.27c.614 1.123 1.051 2.7 1.306 4.458h4.125a8.605 8.605 0 0 0-5.43-4.458zm-9.91 4.458h4.125c.255-1.758.692-3.335 1.306-4.458a8.605 8.605 0 0 0-5.43 4.458zm5.43 12.08c-.613-1.122-1.05-2.7-1.305-4.457h-4.125a8.603 8.603 0 0 0 5.43 4.457zm9.91-4.457h-4.124c-.255 1.758-.692 3.335-1.306 4.457a8.603 8.603 0 0 0 5.43-4.457z"/></defs><use fill="#fff" xlink:href="#a" transform="translate(-755 -944)"/></svg>